<svg width="24" height="24" viewBox="0 0 24 24" xmlns="http://www.w3.org/2000/svg">
    <defs>
        <linearGradient x1="50%" y1="-186.198%" x2="50%" y2="100%" id="a">
            <stop stop-color="#2E4BF4" offset="0%"/>
            <stop stop-color="#7186FF" offset="100%"/>
        </linearGradient>
        <linearGradient x1="50%" y1="-186.198%" x2="50%" y2="100%" id="b">
            <stop stop-color="#2E4BF4" offset="0%"/>
            <stop stop-color="#7186FF" offset="100%"/>
        </linearGradient>
        <linearGradient x1="50%" y1="-186.198%" x2="50%" y2="100%" id="c">
            <stop stop-color="#2E4BF4" offset="0%"/>
            <stop stop-color="#7186FF" offset="100%"/>
        </linearGradient>
        <linearGradient x1="50%" y1="-186.198%" x2="50%" y2="100%" id="d">
            <stop stop-color="#2E4BF4" offset="0%"/>
            <stop stop-color="#7186FF" offset="100%"/>
        </linearGradient>
    </defs>
    <g fill="none" fill-rule="evenodd">
        <path d="M0 0h24v24H0z"/>
        <path stroke="url(#a)" stroke-width="1.5" stroke-linecap="round" d="M3 5H0v3.5l3 2" transform="translate(3)"/>
        <path stroke="url(#a)" stroke-width="1.5" stroke-linecap="round" transform="matrix(-1 0 0 1 36 0)" d="M18 5h-3v3.5l3 2"/>
        <path stroke="url(#b)" stroke-width="1.5" stroke-linecap="round" d="M9 16.5v4" transform="translate(3)"/>
        <path stroke="url(#c)" stroke-width="1.5" stroke-linecap="square" d="M4.5 21h9" transform="translate(3)"/>
        <path stroke="url(#d)" stroke-width="1.5" stroke-linecap="round" d="M3 3v11l6 2.5 6-2.5V3z" transform="translate(3)"/>
        <text font-family="Montserrat-Black, Montserrat" font-size="6" font-weight="800" fill="#7186FF" transform="translate(3)">
                    <tspan x="7.746" y="6">1</tspan>
                </text>
    </g>
</svg>
